# xmcd
#
# Track frame offsets: 
#        150
#        19113
#        34133
#        47051
#        62724
#        79586
#        98714
#        118137
#        145047
#        164521
#
# Disc length: 2452 seconds
#
# Revision: 0
# Processed by: cddbd v1.4PL0 Copyright (c) Steve Scherf et al.
# Submitted via: ExactAudioCopy v0.90b4
#
DISCID=7f09920a
DTITLE=Michael Martin Murphey - Michael Martin Murphey
DYEAR=1982
DGENRE=Country
TTITLE0=Still Taking Chances
TTITLE1=The Two-Step Is Easy
TTITLE2=What's Forever For
TTITLE3=Take It Like a Man
TTITLE4=First Taste of Freedom
TTITLE5=Love Affairs
TTITLE6=Ring of Truth
TTITLE7=Crystal
TTITLE8=Lost River
TTITLE9=Hearts In the Right Place
EXTD=
EXTT0=
EXTT1=
EXTT2=
EXTT3=
EXTT4=
EXTT5=
EXTT6=
EXTT7=
EXTT8=
EXTT9=
PLAYORDER=
